<svg xmlns="http://www.w3.org/2000/svg">
  <symbol id="dashboard" viewBox="0 0 24 24"><rect x="3" y="3" width="7" height="7" rx="1"/><rect x="14" y="3" width="7" height="7" rx="1"/><rect x="3" y="14" width="7" height="7" rx="1"/><rect x="14" y="14" width="7" height="7" rx="1"/></symbol>
  <symbol id="users" viewBox="0 0 24 24"><circle cx="9" cy="8" r="4"/><path d="M2.5 21v-2a6.5 6.5 0 0 1 13 0v2M16 5.5a4 4 0 0 1 0 7M18 15a6 6 0 0 1 3.5 5.5"/></symbol>
  <symbol id="server" viewBox="0 0 24 24"><rect x="3" y="3" width="18" height="7" rx="2"/><rect x="3" y="14" width="18" height="7" rx="2"/><path d="M7 6.5h.01M7 17.5h.01M11 6.5h7M11 17.5h7"/></symbol>
  <symbol id="cpu" viewBox="0 0 24 24"><rect x="6" y="6" width="12" height="12" rx="2"/><rect x="9" y="9" width="6" height="6"/><path d="M9 2v4M15 2v4M9 18v4M15 18v4M2 9h4M2 15h4M18 9h4M18 15h4"/></symbol>
  <symbol id="memory" viewBox="0 0 24 24"><rect x="3" y="6" width="18" height="12" rx="2"/><path d="M7 10v4M11 10v4M15 10v4M19 10v4M7 18v3M17 18v3"/></symbol>
  <symbol id="disk" viewBox="0 0 24 24"><path d="M5 4h14l2 6v8a2 2 0 0 1-2 2H5a2 2 0 0 1-2-2v-8z"/><path d="M3 11h18M7 16h.01M11 16h6"/></symbol>
  <symbol id="network" viewBox="0 0 24 24"><circle cx="12" cy="5" r="2"/><circle cx="5" cy="18" r="2"/><circle cx="19" cy="18" r="2"/><path d="M12 7v5M5 16v-4h14v4"/></symbol>
  <symbol id="temperature" viewBox="0 0 24 24"><path d="M10 14.8V5a2 2 0 1 1 4 0v9.8a4 4 0 1 1-4 0z"/><path d="M12 9v8"/></symbol>
  <symbol id="info" viewBox="0 0 24 24"><circle cx="12" cy="12" r="9"/><path d="M12 11v6M12 7h.01"/></symbol>
  <symbol id="processes" viewBox="0 0 24 24"><path d="M4 7h16M4 12h16M4 17h16"/><circle cx="8" cy="7" r="2"/><circle cx="16" cy="12" r="2"/><circle cx="10" cy="17" r="2"/></symbol>
  <symbol id="services" viewBox="0 0 24 24"><circle cx="12" cy="12" r="3"/><path d="M19 13.5v-3l-2-.7-.7-1.7.9-1.9-2.1-2.1-1.9.9-1.7-.7-.7-2h-3l-.7 2-1.7.7-1.9-.9-2.1 2.1.9 1.9-.7 1.7-2 .7v3l2 .7.7 1.7-.9 1.9 2.1 2.1 1.9-.9 1.7.7.7 2h3l.7-2 1.7-.7 1.9.9 2.1-2.1-.9-1.9.7-1.7z"/></symbol>
  <symbol id="chart" viewBox="0 0 24 24"><path d="M4 20V4M4 20h16"/><path d="m7 15 4-4 3 2 5-6"/></symbol>
  <symbol id="ports" viewBox="0 0 24 24"><path d="M8 3v5M16 3v5M6 8h12v4a6 6 0 0 1-12 0zM12 18v3"/></symbol>
  <symbol id="docker" viewBox="0 0 24 24"><path d="M3 13h17c0 4-3 7-8 7-4 0-7-2-8-5H2zM20 10c1-1 2-1 3-.5-.3 1.7-1.3 2.5-3 2.5"/><path d="M6 9h3v3H6zM10 9h3v3h-3zM14 9h3v3h-3zM10 5h3v3h-3zM14 5h3v3h-3z"/></symbol>
  <symbol id="sensors" viewBox="0 0 24 24"><path d="M4 15c2-6 4 6 6 0s4-6 6 0 4 0 4 0"/><path d="M4 5v4M8 3v6M16 3v6M20 5v4"/></symbol>
</svg>
